<?xml version="1.0" encoding="UTF-8" standalone="no"?>
<!-- Created with Inkscape (http://www.inkscape.org/) -->

<svg
   width="793.59125mm"
   height="793.75mm"
   viewBox="0 0 793.59125 793.75"
   version="1.1"
   id="svg5"
   inkscape:version="1.2.2 (b0a8486541, 2022-12-01)"
   sodipodi:docname="personal-logo.svg"
   xmlns:inkscape="http://www.inkscape.org/namespaces/inkscape"
   xmlns:sodipodi="http://sodipodi.sourceforge.net/DTD/sodipodi-0.dtd"
   xmlns="http://www.w3.org/2000/svg"
   xmlns:svg="http://www.w3.org/2000/svg">
  <sodipodi:namedview
     id="namedview7"
     pagecolor="#ffffff"
     bordercolor="#000000"
     borderopacity="0.25"
     inkscape:showpageshadow="2"
     inkscape:pageopacity="0.0"
     inkscape:pagecheckerboard="0"
     inkscape:deskcolor="#d1d1d1"
     inkscape:document-units="mm"
     showgrid="true"
     inkscape:zoom="0.092876161"
     inkscape:cx="726.77423"
     inkscape:cy="1625.8209"
     inkscape:window-width="1920"
     inkscape:window-height="1015"
     inkscape:window-x="0"
     inkscape:window-y="0"
     inkscape:window-maximized="1"
     inkscape:current-layer="text1012">
    <inkscape:grid
       type="xygrid"
       id="grid132"
       spacingx="1.3229167"
       spacingy="1.3229167"
       color="#ffffff"
       opacity="0.14901961"
       originx="-72.555997"
       originy="-26.499772" />
  </sodipodi:namedview>
  <defs
     id="defs2" />
  <g
     inkscape:label="Layer 1"
     inkscape:groupmode="layer"
     id="layer1"
     transform="translate(-72.555994,-26.499772)">
    <g
       aria-label="k"
       transform="scale(0.83601522,1.1961505)"
       id="text1012"
       style="font-size:36.3768px;font-family:'Droid Serif';-inkscape-font-specification:'Droid Serif, Normal';fill:#1322ff;fill-opacity:0.941176;stroke:#1322ff;stroke-width:0;stroke-opacity:0.941176">
      <g
         id="g2670"
         transform="matrix(20.965581,0,0,23.99719,-1732.7649,-509.48486)">
        <g
           id="g2660">
          <g
             id="g2651">
            <g
               id="g2643">
              <g
                 id="g2636">
                <g
                   id="g2630">
                  <text
                     xml:space="preserve"
                     style="font-style:normal;font-variant:normal;font-weight:normal;font-stretch:normal;font-size:37.8852px;font-family:'Droid Serif';-inkscape-font-specification:'Droid Serif, Normal';font-variant-ligatures:normal;font-variant-caps:normal;font-variant-numeric:normal;font-variant-east-asian:normal;fill:#1322ff;fill-opacity:0.941176;stroke:#1322ff;stroke-width:0;stroke-dasharray:none;stroke-opacity:0.941176"
                     x="-113.6356"
                     y="48.757938"
                     id="text244"
                     transform="scale(-0.98008124,1.0203236)"><tspan
                       sodipodi:role="line"
                       id="tspan242"
                       style="font-style:normal;font-variant:normal;font-weight:normal;font-stretch:normal;font-size:37.8852px;font-family:'Droid Serif';-inkscape-font-specification:'Droid Serif, Normal';font-variant-ligatures:normal;font-variant-caps:normal;font-variant-numeric:normal;font-variant-east-asian:normal;fill:#1322ff;fill-opacity:0.941176;stroke:#1322ff;stroke-width:0;stroke-dasharray:none;stroke-opacity:0.941176"
                       x="-113.6356"
                       y="48.757938">R</tspan></text>
                  <path
                     d="m 123.0768,38.101689 4.84905,7.193654 q 0.9414,1.456493 1.86502,2.220264 0.9414,0.763771 2.16698,0.763771 h 0.10657 v 1.527541 h -0.5151 q -1.58082,0 -2.61103,-0.08881 -1.01244,-0.106573 -1.75845,-0.461815 -0.746,-0.373005 -1.36768,-1.065727 -0.62167,-0.710484 -1.38544,-1.918308 l -3.64123,-5.701637 -2.68208,1.989356 v 3.285991 q 0,0.799295 0.2309,1.296634 0.24867,0.479577 0.6572,0.728246 0.40853,0.24867 0.94139,0.33748 0.55063,0.07105 1.15454,0.07105 h 0.10657 v 1.527541 h -9.78692 v -1.527541 h 0.28419 q 0.62168,0 1.15454,-0.08881 0.55063,-0.08881 0.94139,-0.355242 0.40853,-0.284194 0.63944,-0.799295 0.24867,-0.515101 0.24867,-1.367682 V 26.165551 q 0,-0.799295 -0.24867,-1.278872 -0.23091,-0.497339 -0.63944,-0.76377 -0.40852,-0.266432 -0.95915,-0.337481 -0.53286,-0.08881 -1.13678,-0.08881 h -0.28419 v -1.527541 h 6.69632 v 14.032066 q 0,0.497339 -0.0178,1.278872 -0.0178,0.763771 -0.0533,1.509779 -0.0355,0.852582 -0.071,1.793973 l 4.5471,-4.97339 q 0.58615,-0.657198 0.95915,-1.154537 0.39077,-0.497339 0.62168,-0.870344 0.2309,-0.373004 0.31972,-0.657198 0.0888,-0.301956 0.0888,-0.568387 0,-0.461815 -0.44406,-0.58615 -0.42629,-0.142097 -1.33215,-0.142097 v -1.527541 h 8.02847 v 1.527541 q -1.26111,0 -2.4867,0.888106 -1.20782,0.888105 -2.62879,2.504457 z"
                     id="path2526" />
                </g>
              </g>
            </g>
          </g>
        </g>
      </g>
    </g>
  </g>
</svg>
